<svg width="40" height="35" viewBox="0 0 40 35" xmlns="http://www.w3.org/2000/svg">
    <g clip-path="url(#clip0_92_37)">
        <path d="M6.28232 10.7734C6.46501 10.2266 6.86681 8.49478 7.4878 5.57813C7.92616 3.53646 8.5289 1.98698 9.29602 0.92969C9.69788 0.309896 10.4833 0 11.6522 0C12.3463 0 12.7846 0.21875 12.9673 0.656253C14.1727 3.24479 15.2686 6.45313 16.2549 10.2813C17.0586 13.6354 17.8623 17.0078 18.6659 20.3984C18.6659 20.6537 18.9034 20.9088 19.3782 21.1641C19.8897 21.4193 20.2184 21.6745 20.3645 21.9297C20.5106 22.1484 20.5837 22.4037 20.5837 22.6953C20.5837 22.987 20.5106 23.2057 20.3645 23.3516C20.0723 24.0443 19.9262 24.7552 19.9262 25.4844C19.9262 26.3229 20.2549 27.6537 20.9125 29.4766C21.5335 31.1537 21.7709 32.4844 21.6248 33.4688C21.4787 34.4896 20.675 35 19.2138 35C18.4102 35 17.8075 34.7266 17.4056 34.1797C16.8942 33.487 16.4559 32.0104 16.0905 29.75C15.7983 27.8542 15.1773 26.6146 14.2275 26.0313C13.4239 25.5938 12.4924 25.375 11.433 25.375C9.71613 25.375 8.25492 25.849 7.04944 26.7969C6.5015 27.2344 5.89876 28.8021 5.24124 31.5C4.6933 33.8334 3.79832 35 2.55631 35C2.00837 35 1.3691 34.8177 0.638502 34.4531C0.528916 33.9427 0.474121 33.4141 0.474121 32.8672C0.474121 31.737 0.748092 30.3151 1.29604 28.6016C2.06316 26.2318 2.50152 24.8099 2.61111 24.3359C3.63394 19.5599 4.85768 15.0391 6.28232 10.7734ZM9.29602 15.6953C9.18643 16.2422 8.89421 17.1354 8.41931 18.375C7.98095 19.4688 7.76177 20.2344 7.76177 20.6719C7.76177 21.1094 7.92616 21.4193 8.25492 21.6016C8.94901 21.9662 9.80747 22.1484 10.8303 22.1484C12.328 22.1484 13.2047 21.7292 13.4604 20.8906C13.6431 20.2709 13.7344 19.6146 13.7344 18.9219C13.7344 17.7188 13.4239 16.3334 12.8029 14.7656C12.6933 14.4375 12.0905 13.1068 10.9947 10.7734C10.191 11.7578 9.62479 13.3984 9.29602 15.6953ZM24.1094 23.1328C24.1094 22.5495 24.0546 21.6198 23.945 20.3438C23.872 19.0677 23.8354 18.1198 23.8354 17.5C23.8354 16.1146 23.9998 14.9844 24.3286 14.1094C24.6573 13.3438 25.3514 12.9609 26.4108 12.9609C27.6162 12.9609 28.3651 13.4349 28.6573 14.3828C28.7304 14.6016 28.7669 14.8568 28.7669 15.1484C28.7669 15.513 28.6573 16.0781 28.4382 16.8438C28.2555 17.5729 28.1642 18.138 28.1642 18.5391C28.493 18.8307 28.6573 19.0495 28.6573 19.1953C29.8994 17.1537 30.7213 15.9141 31.1231 15.4766C32.1459 14.2734 33.2966 13.6719 34.5751 13.6719C35.05 13.6719 35.5432 13.7448 36.0546 13.8906C37.3331 16.0052 38.1733 18.6484 38.5751 21.8203C38.6847 22.7318 38.8491 25.5573 39.0683 30.2969C39.4701 31.901 39.2327 32.8307 38.356 33.0859C37.3697 33.3776 36.6025 33.5234 36.0546 33.5234C35.2144 33.5234 34.7395 33.2135 34.6299 32.5938C34.4473 31.2084 34.2829 28.9479 34.1368 25.8125C34.0272 22.9688 33.808 20.763 33.4793 19.1953C32.4564 20.3255 31.5067 22.0573 30.6299 24.3906C29.4975 27.3073 28.6939 29.1849 28.219 30.0234C27.7441 30.8255 27.0317 31.2266 26.082 31.2266C25.0957 31.2266 24.4564 30.6615 24.1642 29.5313C23.9816 28.7292 23.9085 27.6719 23.945 26.3594C24.0546 23.9896 24.1094 22.9141 24.1094 23.1328Z"
              fill="#08182B"/>
    </g>
    <defs>
        <clipPath id="clip0_92_37">
            <rect width="40" height="35"/>
        </clipPath>
    </defs>
</svg>
