<svg width="143" height="50" viewBox="0 0 143 50" xmlns="http://www.w3.org/2000/svg">
    <path d="M6.13885 17.85C6.30555 17.35 6.6722 15.7667 7.23885 13.1C7.63885 11.2334 8.18885 9.81665 8.88885 8.85C9.25555 8.28335 9.9722 8 11.0389 8C11.6722 8 12.0722 8.2 12.2389 8.6C13.3389 10.9667 14.3389 13.9 15.2389 17.4C15.9722 20.4667 16.7056 23.55 17.4389 26.65C17.4389 26.8834 17.6556 27.1166 18.0889 27.35C18.5556 27.5834 18.8556 27.8166 18.9889 28.05C19.1222 28.25 19.1889 28.4834 19.1889 28.75C19.1889 29.0166 19.1222 29.2167 18.9889 29.35C18.7222 29.9834 18.5889 30.6333 18.5889 31.3C18.5889 32.0666 18.8889 33.2833 19.4889 34.95C20.0556 36.4834 20.2722 37.7 20.1389 38.6C20.0056 39.5333 19.2722 40 17.9389 40C17.2056 40 16.6556 39.75 16.2889 39.25C15.8222 38.6166 15.4222 37.2667 15.0889 35.2C14.8222 33.4667 14.2556 32.3333 13.3889 31.8C12.6556 31.4 11.8056 31.2 10.8389 31.2C9.2722 31.2 7.93885 31.6334 6.83885 32.5C6.33885 32.9 5.78885 34.3333 5.18885 36.8C4.68887 38.9333 3.8722 40 2.73887 40C2.23887 40 1.65554 39.8333 0.988867 39.5C0.888867 39.0333 0.838867 38.55 0.838867 38.05C0.838867 37.0166 1.08887 35.7167 1.58887 34.15C2.28887 31.9834 2.68887 30.6833 2.78887 30.25C3.7222 25.8834 4.83887 21.75 6.13885 17.85ZM8.88885 22.35C8.78885 22.85 8.5222 23.6666 8.08885 24.8C7.68885 25.8 7.48885 26.5 7.48885 26.9C7.48885 27.3 7.63885 27.5833 7.93885 27.75C8.5722 28.0833 9.35555 28.25 10.2889 28.25C11.6556 28.25 12.4556 27.8666 12.6889 27.1C12.8556 26.5333 12.9389 25.9333 12.9389 25.3C12.9389 24.2 12.6556 22.9333 12.0889 21.5C11.9889 21.2 11.4389 19.9834 10.4389 17.85C9.70555 18.75 9.18885 20.25 8.88885 22.35ZM22.4061 29.15C22.4061 28.6166 22.3561 27.7667 22.2561 26.6C22.1894 25.4333 22.1561 24.5667 22.1561 24C22.1561 22.7333 22.3061 21.7 22.6061 20.9C22.9061 20.2 23.5394 19.85 24.5061 19.85C25.6061 19.85 26.2894 20.2833 26.5561 21.15C26.6227 21.35 26.6561 21.5834 26.6561 21.85C26.6561 22.1834 26.5561 22.7 26.3561 23.4C26.1894 24.0667 26.1061 24.5834 26.1061 24.95C26.4061 25.2167 26.5561 25.4166 26.5561 25.55C27.6894 23.6833 28.4394 22.55 28.8061 22.15C29.7394 21.05 30.7894 20.5 31.9561 20.5C32.3894 20.5 32.8394 20.5667 33.3061 20.7C34.4727 22.6334 35.2394 25.05 35.6061 27.95C35.7061 28.7833 35.8561 31.3666 36.0561 35.7C36.4227 37.1667 36.2061 38.0166 35.4061 38.25C34.5061 38.5166 33.8061 38.65 33.3061 38.65C32.5394 38.65 32.1061 38.3666 32.0061 37.8C31.8394 36.5333 31.6894 34.4667 31.5561 31.6C31.4561 29 31.2561 26.9833 30.9561 25.55C30.0227 26.5833 29.1561 28.1666 28.3561 30.3C27.3227 32.9667 26.5894 34.6834 26.1561 35.45C25.7227 36.1834 25.0727 36.55 24.2061 36.55C23.3061 36.55 22.7227 36.0333 22.4561 35C22.2894 34.2666 22.2227 33.3 22.2561 32.1C22.3561 29.9333 22.4061 28.95 22.4061 29.15ZM48.7237 17.65C49.9903 18.15 51.257 18.6667 52.5235 19.2C53.8905 19.8667 54.8235 20.7 55.3235 21.7C55.4235 21.8334 55.4735 22.0167 55.4735 22.25C55.4735 23.1833 55.157 23.85 54.5235 24.25C54.2235 24.4167 53.8905 24.5 53.5235 24.5C52.957 24.5 51.8905 24.0333 50.3235 23.1C48.757 22.1667 47.5237 21.7 46.6237 21.7C45.957 21.7 45.307 21.8834 44.6737 22.25C44.3737 22.45 44.2237 22.7334 44.2237 23.1C44.2237 23.5667 44.4903 24.1 45.0237 24.7C45.5903 25.3 46.0903 25.6833 46.5237 25.85C49.9903 27.0834 52.6235 28.5333 54.4235 30.2C55.0235 30.7667 55.3235 31.55 55.3235 32.55C55.3235 33.7167 54.957 34.9 54.2235 36.1C53.5235 37.3 52.357 38.3167 50.7235 39.15C49.1237 39.95 47.4737 40.35 45.7737 40.35C42.7737 40.35 40.6737 39.1 39.4737 36.6C39.3737 36.4 39.3237 36.1667 39.3237 35.9C39.3237 35.3334 39.5903 34.8166 40.1237 34.35C40.657 33.85 41.2237 33.5833 41.8237 33.55C42.2903 33.4833 42.707 33.7833 43.0737 34.45C43.507 35.2167 43.857 35.6666 44.1237 35.8C44.7237 36.1 45.407 36.25 46.1737 36.25C47.3403 36.25 48.357 35.95 49.2237 35.35C50.1235 34.7166 50.5735 33.9 50.5735 32.9C50.5735 32.1334 49.807 31.4 48.2737 30.7C46.5737 29.9667 44.8903 29.25 43.2237 28.55C41.4237 27.6166 40.1737 26.4333 39.4737 25C39.2737 24.5667 39.1737 24.1334 39.1737 23.7C39.1737 22.2 40.1237 20.75 42.0237 19.35C43.8237 18.0167 45.5903 17.35 47.3237 17.35C47.857 17.35 48.3237 17.45 48.7237 17.65ZM63.81 17.65C63.9765 16.5166 64.2265 14.8167 64.56 12.55C64.6935 11.2167 65.56 10.55 67.16 10.55C68.1265 10.55 69.0265 10.8167 69.86 11.35C70.26 11.75 70.3435 12.3167 70.11 13.05C68.81 15.85 68.16 19.25 68.16 23.25C71.3265 22.95 72.8435 22.8 72.71 22.8C74.4435 22.8 75.31 23.2833 75.31 24.25C75.31 24.45 75.2765 24.6666 75.21 24.9C74.8765 25.9667 73.81 26.6166 72.01 26.85C71.3765 26.95 69.81 27 67.31 27C67.2435 27.3666 67.21 27.9166 67.21 28.65C67.21 30.25 67.4265 33.5666 67.86 38.6C68.2265 43.3 68.3765 46.1166 68.31 47.05C68.2435 48.1833 67.66 48.75 66.56 48.75C65.5265 48.75 64.8265 48.2167 64.46 47.15C64.16 46.3167 63.8435 42.95 63.51 37.05C63.21 31.4166 62.7935 28.1166 62.26 27.15C60.8935 28.1833 59.5435 28.7 58.21 28.7C57.61 28.7 57.0765 28.5333 56.61 28.2C56.0435 27.8334 55.76 27.3666 55.76 26.8C55.76 26.1 56.1935 25.4667 57.06 24.9C57.4935 24.7 58.5435 24.4 60.21 24C61.51 23.7333 62.3765 23.3333 62.81 22.8C63.2435 22.2666 63.51 21.4667 63.61 20.4C63.6765 19.4667 63.7435 18.55 63.81 17.65ZM77.583 24.5C77.5165 23.9667 77.2495 23.0834 76.783 21.85C76.3495 20.7167 76.133 19.85 76.133 19.25C76.133 18.45 76.433 17.7833 77.033 17.25C77.633 16.6833 78.2665 16.4 78.933 16.4C79.7995 16.4 80.5495 16.8166 81.183 17.65C81.8165 18.45 82.133 19.4 82.133 20.5C82.133 20.7333 82.1165 20.9667 82.083 21.2C82.9495 21.0667 83.9995 20.3667 85.233 19.1C86.3665 17.9 87.3995 17.3 88.333 17.3C88.6665 17.3 89.0165 17.35 89.383 17.45C90.783 18.0167 91.483 18.5667 91.483 19.1C91.483 19.3667 91.3665 19.65 91.133 19.95C90.4995 20.85 89.333 22 87.633 23.4C85.9665 24.7666 84.783 25.9667 84.083 27C83.8495 27.3666 83.6995 27.9667 83.633 28.8C83.5995 29.6333 83.483 30.2167 83.283 30.55C83.1165 30.85 83.033 31.2167 83.033 31.65C83.033 32.35 83.2995 33.05 83.833 33.75C84.2665 34.2833 84.483 34.9667 84.483 35.8C84.483 37.0333 84.0995 38.0166 83.333 38.75C82.833 39.55 82.083 39.95 81.083 39.95C80.2495 39.95 79.583 39.6334 79.083 39C78.5165 38.6334 78.2665 37.8834 78.333 36.75C78.4665 33.7833 78.2165 29.7 77.583 24.5ZM92.595 25.9C92.562 23.6333 93.2285 21.75 94.595 20.25C95.962 18.7167 97.712 17.95 99.845 17.95C102.112 17.95 104.112 18.8166 105.845 20.55C107.612 22.25 108.479 24.25 108.445 26.55C108.145 27.4833 106.895 28.6 104.695 29.9C101.962 31.5333 100.445 32.5 100.145 32.8C99.5785 33.0666 99.295 33.35 99.295 33.65C99.295 34.1834 99.662 34.6666 100.395 35.1C101.128 35.5 101.779 35.7 102.345 35.7C103.445 35.7 105.029 35.1666 107.095 34.1C107.729 34.5666 108.045 35.2 108.045 36C108.045 36.6334 107.845 37.2167 107.445 37.75C107.045 38.2833 106.528 38.6 105.895 38.7C103.762 39.0333 102.412 39.2 101.845 39.2C100.712 39.2 99.695 39 98.795 38.6C94.8285 36.8333 92.762 32.6 92.595 25.9ZM98.045 28.45C101.012 28.3167 102.812 27.2666 103.445 25.3C103.578 25.0333 103.645 24.7666 103.645 24.5C103.645 23.8 103.278 23.2333 102.545 22.8C101.812 22.3666 100.995 22.15 100.095 22.15C99.4285 22.15 98.862 22.2833 98.395 22.55C97.4285 23.05 96.945 24.1 96.945 25.7C96.945 27.4667 97.312 28.3834 98.045 28.45ZM118.938 17.65C120.205 18.15 121.472 18.6667 122.739 19.2C124.105 19.8667 125.038 20.7 125.538 21.7C125.638 21.8334 125.688 22.0167 125.688 22.25C125.688 23.1833 125.372 23.85 124.739 24.25C124.438 24.4167 124.105 24.5 123.739 24.5C123.172 24.5 122.105 24.0333 120.538 23.1C118.972 22.1667 117.739 21.7 116.839 21.7C116.172 21.7 115.522 21.8834 114.888 22.25C114.588 22.45 114.438 22.7334 114.438 23.1C114.438 23.5667 114.705 24.1 115.239 24.7C115.805 25.3 116.305 25.6833 116.739 25.85C120.205 27.0834 122.838 28.5333 124.638 30.2C125.238 30.7667 125.538 31.55 125.538 32.55C125.538 33.7167 125.172 34.9 124.438 36.1C123.739 37.3 122.572 38.3167 120.938 39.15C119.339 39.95 117.688 40.35 115.989 40.35C112.989 40.35 110.888 39.1 109.688 36.6C109.589 36.4 109.538 36.1667 109.538 35.9C109.538 35.3334 109.805 34.8166 110.339 34.35C110.872 33.85 111.438 33.5833 112.038 33.55C112.505 33.4833 112.922 33.7833 113.288 34.45C113.722 35.2167 114.072 35.6666 114.339 35.8C114.938 36.1 115.622 36.25 116.388 36.25C117.555 36.25 118.572 35.95 119.438 35.35C120.339 34.7166 120.788 33.9 120.788 32.9C120.788 32.1334 120.022 31.4 118.489 30.7C116.789 29.9667 115.105 29.25 113.438 28.55C111.638 27.6166 110.388 26.4333 109.688 25C109.489 24.5667 109.388 24.1334 109.388 23.7C109.388 22.2 110.339 20.75 112.239 19.35C114.039 18.0167 115.805 17.35 117.538 17.35C118.072 17.35 118.538 17.45 118.938 17.65ZM136.175 17.65C137.441 18.15 138.708 18.6667 139.975 19.2C141.342 19.8667 142.275 20.7 142.775 21.7C142.875 21.8334 142.925 22.0167 142.925 22.25C142.925 23.1833 142.608 23.85 141.975 24.25C141.675 24.4167 141.342 24.5 140.975 24.5C140.408 24.5 139.341 24.0333 137.775 23.1C136.208 22.1667 134.975 21.7 134.075 21.7C133.408 21.7 132.758 21.8834 132.125 22.25C131.825 22.45 131.675 22.7334 131.675 23.1C131.675 23.5667 131.942 24.1 132.475 24.7C133.042 25.3 133.542 25.6833 133.975 25.85C137.442 27.0834 140.075 28.5333 141.875 30.2C142.475 30.7667 142.775 31.55 142.775 32.55C142.775 33.7167 142.408 34.9 141.675 36.1C140.975 37.3 139.808 38.3167 138.175 39.15C136.575 39.95 134.925 40.35 133.225 40.35C130.225 40.35 128.125 39.1 126.925 36.6C126.825 36.4 126.775 36.1667 126.775 35.9C126.775 35.3334 127.041 34.8166 127.575 34.35C128.108 33.85 128.675 33.5833 129.275 33.55C129.742 33.4833 130.158 33.7833 130.525 34.45C130.958 35.2167 131.308 35.6666 131.575 35.8C132.175 36.1 132.858 36.25 133.625 36.25C134.792 36.25 135.808 35.95 136.675 35.35C137.575 34.7166 138.025 33.9 138.025 32.9C138.025 32.1334 137.258 31.4 135.725 30.7C134.025 29.9667 132.342 29.25 130.675 28.55C128.875 27.6166 127.625 26.4333 126.925 25C126.725 24.5667 126.625 24.1334 126.625 23.7C126.625 22.2 127.575 20.75 129.475 19.35C131.275 18.0167 133.041 17.35 134.775 17.35C135.308 17.35 135.775 17.45 136.175 17.65Z"
        fill="#08182B"  />
</svg>
